<svg width="24" height="24" viewBox="0 0 24 24" fill="none"
  xmlns="http://www.w3.org/2000/svg">
  <path d="M5.70898 13.0002H16.879L11.999 17.8802C11.609 18.2702 11.609 18.9102 11.999 19.3002C12.389 19.6902 13.019 19.6902 13.409 19.3002L19.999 12.7102C20.389 12.3202 20.389 11.6902 19.999 11.3002L13.419 4.7002C13.2322 4.51295 12.9785 4.40771 12.714 4.40771C12.4495 4.40771 12.1958 4.51295 12.009 4.7002C11.619 5.0902 11.619 5.7202 12.009 6.1102L16.879 11.0002H5.70898C5.15898 11.0002 4.70898 11.4502 4.70898 12.0002C4.70898 12.5502 5.15898 13.0002 5.70898 13.0002Z" fill="#000"/>
</svg>
