<svg width="24" height="24" viewBox="0 0 24 24" fill="none"
  xmlns="http://www.w3.org/2000/svg">
  <path d="M19.2915 11.0051H8.12148L13.0015 6.12508C13.3915 5.73508 13.3915 5.09508 13.0015 4.70508C12.8147 4.51783 12.561 4.4126 12.2965 4.4126C12.032 4.4126 11.7783 4.51783 11.5915 4.70508L5.00148 11.2951C4.61148 11.6851 4.61148 12.3151 5.00148 12.7051L11.5915 19.2951C11.9815 19.6851 12.6115 19.6851 13.0015 19.2951C13.3915 18.9051 13.3915 18.2751 13.0015 17.8851L8.12148 13.0051H19.2915C19.8415 13.0051 20.2915 12.5551 20.2915 12.0051C20.2915 11.4551 19.8415 11.0051 19.2915 11.0051Z" fill="#000"/>
</svg>
