<svg width="24" height="24" viewBox="0 0 24 24" fill="none"
  xmlns="http://www.w3.org/2000/svg">
  <path d="M11.5046 5.20898V16.379L6.62461 11.499C6.23461 11.109 5.59461 11.109 5.20461 11.499C4.81461 11.889 4.81461 12.519 5.20461 12.909L11.7946 19.499C12.1846 19.889 12.8146 19.889 13.2046 19.499L19.7946 12.909C20.1846 12.519 20.1846 11.889 19.7946 11.499C19.6078 11.3117 19.3541 11.2065 19.0896 11.2065C18.8251 11.2065 18.5714 11.3117 18.3846 11.499L13.5046 16.379V5.20898C13.5046 4.65898 13.0546 4.20898 12.5046 4.20898C11.9546 4.20898 11.5046 4.65898 11.5046 5.20898Z" fill="#000"/>
</svg>
