<svg width="24" height="24" viewBox="0 0 24 24" fill="none"
  xmlns="http://www.w3.org/2000/svg">
  <path d="M18.3002 5.7102C18.1134 5.52295 17.8597 5.41771 17.5952 5.41771C17.3307 5.41771 17.077 5.52295 16.8902 5.7102L12.0002 10.5902L7.11021 5.7002C6.92338 5.51295 6.66973 5.40771 6.40521 5.40771C6.1407 5.40771 5.88705 5.51295 5.70021 5.7002C5.31021 6.0902 5.31021 6.7202 5.70021 7.1102L10.5902 12.0002L5.70021 16.8902C5.31021 17.2802 5.31021 17.9102 5.70021 18.3002C6.09021 18.6902 6.72021 18.6902 7.11021 18.3002L12.0002 13.4102L16.8902 18.3002C17.2802 18.6902 17.9102 18.6902 18.3002 18.3002C18.6902 17.9102 18.6902 17.2802 18.3002 16.8902L13.4102 12.0002L18.3002 7.1102C18.6802 6.7302 18.6802 6.0902 18.3002 5.7102Z" fill="#000"/>
</svg>
